<?xml version="1.0" standalone="no"?><!DOCTYPE svg PUBLIC "-//W3C//DTD SVG 1.1//EN" "http://www.w3.org/Graphics/SVG/1.1/DTD/svg11.dtd"><svg t="1740663364057" class="icon" viewBox="0 0 1024 1024" version="1.1" xmlns="http://www.w3.org/2000/svg" p-id="9702" xmlns:xlink="http://www.w3.org/1999/xlink" width="200" height="200"><path d="M237.696 179.84a39.616 39.616 0 0 1 36.608-24.384h416c10.496 0 20.544 4.16 27.968 11.584l59.456 59.456a39.616 39.616 0 1 1-56 56l-47.808-47.808H369.92l249.344 249.28a39.68 39.68 0 0 1 0 56.064L369.92 789.312h304l47.808-47.808a39.68 39.68 0 0 1 56 56l-59.456 59.456a39.616 39.616 0 0 1-27.968 11.584h-416a39.616 39.616 0 0 1-28.032-67.584L535.232 512 246.272 223.04a39.616 39.616 0 0 1-8.576-43.136zM155.456 96a39.616 39.616 0 0 1 39.616 39.68V888.32a39.68 39.68 0 0 1-79.232 0V135.616a39.68 39.68 0 0 1 39.616-39.616z m713.152 0a39.616 39.616 0 0 1 39.616 39.68V888.32a39.68 39.68 0 0 1-79.296 0V135.616a39.616 39.616 0 0 1 39.68-39.616z" p-id="9703"></path></svg>