<?xml version="1.0" standalone="no"?><!DOCTYPE svg PUBLIC "-//W3C//DTD SVG 1.1//EN" "http://www.w3.org/Graphics/SVG/1.1/DTD/svg11.dtd"><svg t="1740662956208" class="icon" viewBox="0 0 1024 1024" version="1.1" xmlns="http://www.w3.org/2000/svg" p-id="4683" xmlns:xlink="http://www.w3.org/1999/xlink" width="200" height="200"><path d="M338.986667 59.413333h52.586666a21.333333 21.333333 0 0 1 21.333334 21.333334V115.84a21.333333 21.333333 0 0 1-21.333334 21.333333H356.266667c-36.48 0-53.76 20.16-53.76 62.4v188.16c0 59.52-27.84 99.84-82.56 120 54.72 23.04 82.56 62.4 82.56 120v189.12c0 40.32 17.28 61.44 53.76 61.44h35.306666a21.333333 21.333333 0 0 1 21.333334 21.333334v35.093333a21.333333 21.333333 0 0 1-21.333334 21.333333H338.986667c-42.24 0-74.88-14.4-97.92-41.28-21.12-24.96-31.68-59.52-31.68-101.76v-180.48c0-27.84-5.76-48-17.28-60.48-11.178667-12.778667-29.653333-20.245333-55.466667-23.488a18.901333 18.901333 0 0 1-16.533333-18.773333v-43.221333c0-10.005333 7.381333-18.474667 17.28-19.84 25.408-3.498667 43.648-11.456 54.72-23.317334 11.52-13.44 17.28-33.6 17.28-60.48V203.413333c0-43.2 10.56-77.76 31.68-102.72 23.04-27.84 55.68-41.28 97.92-41.28z m292.48 0h52.586666c42.24 0 74.88 13.44 97.92 41.28 21.12 24.96 31.68 59.52 31.68 102.72v179.52c0 26.88 5.76 48 18.24 61.44 10.24 11.029333 28.224 18.816 53.418667 22.314667 10.112 1.408 17.621333 10.026667 17.621333 20.245333v40.746667a21.333333 21.333333 0 0 1-18.88 21.184c-24.576 3.413333-42.282667 10.794667-53.12 23.189333-11.52 12.48-17.28 32.64-17.28 60.48v180.48c0 42.24-10.56 76.8-31.68 101.76-23.04 26.88-55.68 41.28-97.92 41.28H631.466667a21.333333 21.333333 0 0 1-21.333334-21.333333V899.626667a21.333333 21.333333 0 0 1 21.333334-21.333334h35.306666c35.52 0 53.76-21.12 53.76-61.44v-189.12c0-57.6 26.88-96.96 82.56-120-55.68-20.16-82.56-60.48-82.56-120v-188.16c0-42.24-18.24-62.4-53.76-62.4H631.466667a21.333333 21.333333 0 0 1-21.333334-21.333333V80.746667a21.333333 21.333333 0 0 1 21.333334-21.333334z" fill="#000000" p-id="4684"></path></svg>