<?xml version="1.0" standalone="no"?><!DOCTYPE svg PUBLIC "-//W3C//DTD SVG 1.1//EN" "http://www.w3.org/Graphics/SVG/1.1/DTD/svg11.dtd"><svg t="1740663352749" class="icon" viewBox="0 0 1024 1024" version="1.1" xmlns="http://www.w3.org/2000/svg" p-id="8674" xmlns:xlink="http://www.w3.org/1999/xlink" width="200" height="200"><path d="M231.296 179.84a39.616 39.616 0 0 1 36.608-24.384h416a39.68 39.68 0 0 1 27.968 11.584l59.456 59.456a39.68 39.68 0 1 1-56 56l-47.872-47.808H363.52l249.344 249.28a39.68 39.68 0 0 1 0 56.064L363.52 789.376h304l47.808-47.872a39.68 39.68 0 0 1 56 56.064l-59.456 59.392a39.68 39.68 0 0 1-27.968 11.648h-416a39.68 39.68 0 0 1-28.032-67.648L528.832 512 239.872 223.04a39.68 39.68 0 0 1-8.576-43.136zM313.6 473.6a38.4 38.4 0 0 1 0 76.8H134.4a38.4 38.4 0 0 1 0-76.8h179.2z m614.4 38.4a38.4 38.4 0 0 0-38.4-38.4h-179.2a38.4 38.4 0 1 0 0 76.8h179.2a38.4 38.4 0 0 0 38.4-38.4z" p-id="8675"></path></svg>