<?xml version="1.0" standalone="no"?><!DOCTYPE svg PUBLIC "-//W3C//DTD SVG 1.1//EN" "http://www.w3.org/Graphics/SVG/1.1/DTD/svg11.dtd"><svg t="1740662937884" class="icon" viewBox="0 0 1024 1024" version="1.1" xmlns="http://www.w3.org/2000/svg" p-id="3652" xmlns:xlink="http://www.w3.org/1999/xlink" width="200" height="200"><path d="M271.68 680L89.152 537.216a32 32 0 0 1 0-50.368l183.168-143.36a19.712 19.712 0 0 1 31.872 15.68l-0.256 25.6a32 32 0 0 1-12.288 24.832L160.832 512 291.584 614.4a32 32 0 0 1 12.288 25.344l-0.128 24.832a19.84 19.84 0 0 1-32.064 15.488zM752.832 680l182.528-142.784a32 32 0 0 0 0-50.368l-183.104-143.36a19.712 19.712 0 0 0-31.872 15.68l0.192 25.6a32 32 0 0 0 12.288 24.832L863.744 512 732.928 614.4a32 32 0 0 0-12.224 25.344l0.064 24.832a19.84 19.84 0 0 0 32.064 15.488zM420.928 856.576h-40.832a12.8 12.8 0 0 1-12.16-16.832L590.848 177.408a12.8 12.8 0 0 1 12.16-8.704h40.448a12.8 12.8 0 0 1 12.16 16.896L433.024 847.872a12.8 12.8 0 0 1-12.16 8.704z" fill="#2c2c2c" p-id="3653"></path></svg>