<?xml version="1.0" standalone="no"?><!DOCTYPE svg PUBLIC "-//W3C//DTD SVG 1.1//EN" "http://www.w3.org/Graphics/SVG/1.1/DTD/svg11.dtd"><svg t="1736607356507" class="icon" viewBox="0 0 1133 1024" version="1.1" xmlns="http://www.w3.org/2000/svg" p-id="2888" xmlns:xlink="http://www.w3.org/1999/xlink" width="221.2890625" height="200"><path d="M751.559633 702.419195c91.776994-91.776994 93.222301-239.198306 2.890614-329.529992s-237.752999-88.88638-329.529993 2.890614c-63.593507 63.593507-83.827805 154.647848-59.98024 234.139731l-30.351447 30.351447c-7.226535 7.226535-7.226535 18.788991 0 26.015526L397.459421 729.880028l63.593508 63.593508c7.226535 7.226535 18.788991 7.226535 26.015525 0l30.351447-30.351447c79.491884 23.124912 170.546224 2.890614 234.139732-60.702894zM256.54199 725.544107c-15.175723 41.191249-7.226535 88.163726 24.570219 119.96048 31.796754 31.796754 78.769231 39.745942 119.96048 24.570219l-144.530699-144.530699z" fill="#8a8a8a" p-id="2889"></path><path d="M429.978829 850.563162c-5.781228 5.781228-14.45307 5.781228-20.234298 0L278.944248 719.762879c-5.781228-5.781228-5.781228-14.45307 0-20.234297l20.234298-20.234298c5.781228-5.781228 14.45307-5.781228 20.234298 0l130.800282 130.800282c5.781228 5.781228 5.781228 14.45307 0 20.234298l-20.234297 20.234298z" fill="#8a8a8a" p-id="2890"></path><path d="M474.783345 273.16302c4.335921 7.949188 0.722653 18.788991-7.226535 22.402259-8.671842 4.335921-18.788991 0.722653-22.402258-7.226535l-20.234298-39.745942c-4.335921-8.671842-0.722653-18.788991 7.226535-22.402259 8.671842-4.335921 18.788991-0.722653 22.402258 7.226535l20.234298 39.745942zM527.53705 270.272406c-2.890614 8.671842-12.285109 13.730416-20.956951 10.839803-8.671842-2.890614-13.730416-12.285109-10.839803-20.956951l13.730417-41.913903c2.890614-8.671842 12.285109-13.730416 21.679605-10.839802 8.671842 2.890614 13.730416 12.285109 10.839802 21.679604l-14.45307 41.191249zM410.467184 329.529993c8.671842 2.890614 18.066337-2.16796 20.956951-10.839802 2.890614-8.671842-2.16796-18.788991-10.839802-21.679605l-41.913903-13.730417c-8.671842-2.890614-18.788991 2.16796-21.679604 10.839803-2.890614 8.671842 2.16796 18.066337 10.839802 20.956951l42.636556 14.45307z" fill="#8a8a8a" p-id="2891"></path><path d="M490.681722 437.205363c27.460833-27.460833 60.702893-41.191249 100.448836-39.745942 39.023289 0.722653 73.710656 15.898377 101.894142 44.804517 26.015526 26.015526 40.468596 55.644319 44.081863 90.331687 2.890614 33.964714-7.226535 62.870854-30.351447 86.718419-22.402258 22.402258-49.140438 33.242061-81.659844 32.519407-26.738179-0.722653-46.972477-7.949188-59.98024-21.679605-10.839802-10.839802-11.562456-21.679605-2.890614-33.964714-8.671842 0.722653-18.066337-0.722653-26.015526-3.613267-8.671842-2.890614-15.898377-7.949188-22.402258-14.45307-11.562456-11.562456-16.62103-24.570219-14.45307-39.023289 1.445307-15.175723 8.671842-28.183486 20.956951-41.191249 18.066337-18.066337 39.745942-28.90614 65.038815-31.796754 26.738179-2.890614 48.417784 3.613267 65.038814 20.234298 6.503881 6.503881 11.562456 14.45307 13.730416 23.124912 2.16796 8.671842 1.445307 18.066337-2.16796 28.183486l20.956951-10.117149 19.511644 19.511644-92.499647 50.585745c-2.16796 0.722653-4.335921 2.890614-8.671842 5.058574-3.613267 2.16796-6.503881 4.335921-7.226535 5.781228-3.613267 3.613267-3.613267 7.949188 0.722654 12.28511 7.949188 7.949188 20.956951 10.117149 39.745942 6.503881 18.788991-3.613267 34.687368-11.562456 48.417784-25.292872 19.511644-19.511644 28.183486-41.913903 25.292872-68.652082-2.16796-26.738179-13.730416-49.863091-33.964714-70.820042-23.847565-23.847565-51.308398-35.410021-83.105151-35.410021-31.0741 0-57.812279 11.562456-80.214538 33.24206-21.679605 21.679605-32.519407 48.417784-31.0741 80.214538 0.722653 31.796754 13.007763 59.257586 36.855328 83.105152 11.562456 11.562456 26.015526 20.956951 41.913902 27.460832 15.898377 6.503881 31.0741 9.394495 44.804517 8.671842l22.402258 22.402259c-23.124912 5.058574-46.249824 4.335921-69.374735-2.890614-23.124912-7.226535-43.35921-19.511644-60.702894-36.855328-29.628793-29.628793-44.804517-64.316161-45.52717-103.33945-1.445307-40.468596 12.285109-74.43331 40.468596-101.894143z m137.304164 116.347213c6.503881-6.503881 10.839802-15.175723 10.839802-24.570219 0.722653-9.394495-2.16796-17.343684-8.671842-23.847565-10.117149-10.117149-24.570219-14.45307-43.359209-11.562456-18.066337 2.890614-33.242061 10.117149-44.804517 21.679605-7.226535 7.226535-11.562456 15.898377-12.285109 24.570218-0.722653 8.671842 2.16796 17.343684 9.394495 24.570219 10.117149 10.117149 25.292872 13.730416 44.804517 10.117149 18.066337-2.890614 32.519407-10.117149 44.081863-20.956951z" fill="#8a8a8a" p-id="2892"></path></svg>